<svg width="421" height="70" viewBox="0 0 421 70" fill="none" xmlns="http://www.w3.org/2000/svg">
<path d="M0.472 70H-0.528V71H0.472V70ZM0.472 0.783998V-0.216002H-0.528V0.783998H0.472ZM15.352 0.783998H16.352V-0.216002H15.352V0.783998ZM15.352 55.024H14.352V56.024H15.352V55.024ZM69.592 55.024H70.592V54.024H69.592V55.024ZM69.592 70V71H70.592V70H69.592ZM1.472 70V0.783998H-0.528V70H1.472ZM0.472 1.784H15.352V-0.216002H0.472V1.784ZM14.352 0.783998V55.024H16.352V0.783998H14.352ZM15.352 56.024H69.592V54.024H15.352V56.024ZM68.592 55.024V70H70.592V55.024H68.592ZM69.592 69H0.472V71H69.592V69ZM106.101 68.08L106.608 67.2181L106.101 68.08ZM100.917 62.896L100.055 63.403L100.917 62.896ZM100.917 7.984L101.772 8.50234L101.778 8.49102L100.917 7.984ZM106.101 2.8L105.593 1.93806L106.101 2.8ZM160.917 2.8L160.398 3.65527L160.409 3.66193L160.917 2.8ZM166.1 7.984L165.239 8.49102L165.247 8.5061L165.257 8.52087L166.1 7.984ZM166.1 62.896L165.25 62.3705L165.244 62.3797L165.239 62.389L166.1 62.896ZM160.917 68.08L160.409 67.218L160.398 67.2248L160.917 68.08ZM113.877 55.024H112.877V56.024H113.877V55.024ZM153.045 55.024V56.024H154.045V55.024H153.045ZM153.045 15.856H154.045V14.856H153.045V15.856ZM113.877 15.856V14.856H112.877V15.856H113.877ZM113.204 69C110.82 69 108.628 68.4063 106.608 67.2181L105.593 68.9419C107.925 70.3137 110.469 71 113.204 71V69ZM106.608 67.2181C104.578 66.0243 102.972 64.4184 101.778 62.389L100.055 63.403C101.421 65.7256 103.271 67.5757 105.593 68.9419L106.608 67.2181ZM101.778 62.389C100.59 60.3689 99.9965 58.1763 99.9965 55.792H97.9965C97.9965 58.5277 98.6828 61.0711 100.055 63.403L101.778 62.389ZM99.9965 55.792V15.088H97.9965V55.792H99.9965ZM99.9965 15.088C99.9965 12.6348 100.592 10.4481 101.772 8.5023L100.061 7.46569C98.6806 9.74386 97.9965 12.2931 97.9965 15.088H99.9965ZM101.778 8.49102C102.972 6.46157 104.578 4.85572 106.608 3.66193L105.593 1.93806C103.271 3.30427 101.421 5.15443 100.055 7.47698L101.778 8.49102ZM106.608 3.66193C108.628 2.47365 110.82 1.88 113.204 1.88V-0.120003C110.469 -0.120003 107.925 0.566339 105.593 1.93806L106.608 3.66193ZM113.204 1.88H153.909V-0.120003H113.204V1.88ZM153.909 1.88C156.293 1.88 158.448 2.47349 160.398 3.65519L161.435 1.9448C159.161 0.566507 156.644 -0.120003 153.909 -0.120003V1.88ZM160.409 3.66193C162.439 4.85572 164.045 6.46157 165.239 8.49102L166.962 7.47698C165.596 5.15443 163.746 3.30427 161.424 1.93806L160.409 3.66193ZM165.257 8.52087C166.494 10.4645 167.117 12.6446 167.117 15.088H169.117C169.117 12.2834 168.395 9.7275 166.944 7.44712L165.257 8.52087ZM167.117 15.088V55.792H169.117V15.088H167.117ZM167.117 55.792C167.117 58.1666 166.496 60.3526 165.25 62.3705L166.951 63.4215C168.393 61.0874 169.117 58.5374 169.117 55.792H167.117ZM165.239 62.389C164.045 64.4184 162.439 66.0243 160.409 67.2181L161.424 68.9419C163.746 67.5757 165.596 65.7256 166.962 63.403L165.239 62.389ZM160.398 67.2248C158.448 68.4065 156.293 69 153.909 69V71C156.644 71 159.161 70.3135 161.435 68.9352L160.398 67.2248ZM153.909 69H113.204V71H153.909V69ZM113.877 56.024H153.045V54.024H113.877V56.024ZM154.045 55.024V15.856H152.045V55.024H154.045ZM153.045 14.856H113.877V16.856H153.045V14.856ZM112.877 15.856V55.024H114.877V15.856H112.877ZM209.792 68.08L210.3 67.2181L209.792 68.08ZM204.609 62.896L205.47 62.389L204.609 62.896ZM204.609 7.984L205.464 8.50234L205.47 8.49102L204.609 7.984ZM209.792 2.8L209.285 1.93806L209.792 2.8ZM264.608 2.8L264.09 3.65527L264.101 3.66193L264.608 2.8ZM269.793 7.984L268.931 8.49102L268.939 8.5061L268.949 8.52087L269.793 7.984ZM271.809 21.616V22.616H272.809V21.616H271.809ZM256.737 21.616H255.737V22.616H256.737V21.616ZM256.737 15.856H257.737V14.856H256.737V15.856ZM217.568 15.856V14.856H216.568V15.856H217.568ZM217.568 55.024H216.568V56.024H217.568V55.024ZM256.737 55.024V56.024H257.737V55.024H256.737ZM256.737 44.656H257.737V43.656H256.737V44.656ZM241.76 44.656H240.76V45.656H241.76V44.656ZM241.76 29.68V28.68H240.76V29.68H241.76ZM271.809 29.68H272.809V28.68H271.809V29.68ZM269.793 62.896L268.942 62.3705L268.936 62.3797L268.931 62.389L269.793 62.896ZM264.608 68.08L264.101 67.218L264.09 67.2248L264.608 68.08ZM216.896 69C214.512 69 212.32 68.4063 210.3 67.2181L209.285 68.9419C211.617 70.3137 214.161 71 216.896 71V69ZM210.3 67.2181C208.27 66.0243 206.664 64.4184 205.47 62.389L203.747 63.403C205.113 65.7256 206.963 67.5757 209.285 68.9419L210.3 67.2181ZM205.47 62.389C204.282 60.3689 203.689 58.1763 203.689 55.792H201.689C201.689 58.5277 202.375 61.0711 203.747 63.403L205.47 62.389ZM203.689 55.792V15.088H201.689V55.792H203.689ZM203.689 15.088C203.689 12.6348 204.284 10.4481 205.464 8.5023L203.753 7.46569C202.373 9.74386 201.689 12.2931 201.689 15.088H203.689ZM205.47 8.49102C206.664 6.46157 208.27 4.85572 210.3 3.66193L209.285 1.93806C206.963 3.30427 205.113 5.15443 203.747 7.47698L205.47 8.49102ZM210.3 3.66193C212.32 2.47365 214.512 1.88 216.896 1.88V-0.120003C214.161 -0.120003 211.617 0.566339 209.285 1.93806L210.3 3.66193ZM216.896 1.88H257.505V-0.120003H216.896V1.88ZM257.505 1.88C259.958 1.88 262.144 2.4759 264.09 3.65519L265.127 1.9448C262.849 0.564093 260.299 -0.120003 257.505 -0.120003V1.88ZM264.101 3.66193C266.131 4.85572 267.737 6.46157 268.931 8.49102L270.654 7.47697C269.288 5.15442 267.438 3.30427 265.116 1.93806L264.101 3.66193ZM268.949 8.52087C270.186 10.4645 270.809 12.6446 270.809 15.088H272.809C272.809 12.2834 272.087 9.7275 270.636 7.44712L268.949 8.52087ZM270.809 15.088V21.616H272.809V15.088H270.809ZM271.809 20.616H256.737V22.616H271.809V20.616ZM257.737 21.616V15.856H255.737V21.616H257.737ZM256.737 14.856H217.568V16.856H256.737V14.856ZM216.568 15.856V55.024H218.568V15.856H216.568ZM217.568 56.024H256.737V54.024H217.568V56.024ZM257.737 55.024V44.656H255.737V55.024H257.737ZM256.737 43.656H241.76V45.656H256.737V43.656ZM242.76 44.656V29.68H240.76V44.656H242.76ZM241.76 30.68H271.809V28.68H241.76V30.68ZM270.809 29.68V55.792H272.809V29.68H270.809ZM270.809 55.792C270.809 58.1666 270.188 60.3526 268.942 62.3705L270.643 63.4215C272.085 61.0874 272.809 58.5374 272.809 55.792H270.809ZM268.931 62.389C267.737 64.4184 266.131 66.0243 264.101 67.2181L265.116 68.9419C267.438 67.5757 269.288 65.7256 270.654 63.403L268.931 62.389ZM264.09 67.2248C262.144 68.4041 259.958 69 257.505 69V71C260.299 71 262.849 70.3159 265.127 68.9352L264.09 67.2248ZM257.505 69H216.896V71H257.505V69ZM303.976 70H302.976V71H303.976V70ZM303.976 0.879997V-0.120003H302.976V0.879997H303.976ZM318.664 0.879997H319.664V-0.120003H318.664V0.879997ZM318.664 70V71H319.664V70H318.664ZM304.976 70V0.879997H302.976V70H304.976ZM303.976 1.88H318.664V-0.120003H303.976V1.88ZM317.664 0.879997V70H319.664V0.879997H317.664ZM318.664 69H303.976V71H318.664V69ZM350.907 70H349.907V71H350.907V70ZM350.907 0.879997V-0.120003H349.907V0.879997H350.907ZM366.267 0.879997L367.033 0.236992L366.733 -0.120003H366.267V0.879997ZM404.955 46.96L404.189 47.603L405.955 49.7063V46.96H404.955ZM404.955 0.879997V-0.120003H403.955V0.879997H404.955ZM420.027 0.879997H421.027V-0.120003H420.027V0.879997ZM420.027 70V71H421.027V70H420.027ZM404.667 70L403.902 70.6433L404.201 71H404.667V70ZM365.787 23.728L366.553 23.0847L364.787 20.9834V23.728H365.787ZM365.787 70V71H366.787V70H365.787ZM351.907 70V0.879997H349.907V70H351.907ZM350.907 1.88H366.267V-0.120003H350.907V1.88ZM365.501 1.523L404.189 47.603L405.721 46.317L367.033 0.236992L365.501 1.523ZM405.955 46.96V0.879997H403.955V46.96H405.955ZM404.955 1.88H420.027V-0.120003H404.955V1.88ZM419.027 0.879997V70H421.027V0.879997H419.027ZM420.027 69H404.667V71H420.027V69ZM405.433 69.3567L366.553 23.0847L365.022 24.3713L403.902 70.6433L405.433 69.3567ZM364.787 23.728V70H366.787V23.728H364.787ZM365.787 69H350.907V71H365.787V69Z" fill="white"/>
</svg>
